<mxfile host="app.diagrams.net" modified="2023-08-29T02:30:03.958Z" agent="Mozilla/5.0 (Windows NT 10.0; Win64; x64) AppleWebKit/537.36 (KHTML, like Gecko) Chrome/115.0.0.0 Safari/537.36 Edg/115.0.1901.188" version="21.6.9" etag="HHOffS9M5JgcbF_LNQE0" type="github">
  <diagram name="第 1 页" id="QPClvQ0x3DZ5slUgXwcy">
    <mxGraphModel>
      <root>
        <mxCell id="0" />
        <mxCell id="1" parent="0" />
      </root>
    </mxGraphModel>
  </diagram>
</mxfile>
